<?xml version="1.0" encoding="UTF-8"?><svg id="a" xmlns="http://www.w3.org/2000/svg" xmlns:xlink="http://www.w3.org/1999/xlink" viewBox="0 0 695 695"><defs><style>.g{fill:none;}.h{clip-path:url(#c);}.i{clip-path:url(#b);}.j{clip-path:url(#f);}.k{clip-path:url(#e);}.l{clip-path:url(#d);}.m{isolation:isolate;}</style><clipPath id="b"><path class="g" d="M416.24,357.39l-24.84,14.34c-.06-1-.58-1.97-1.4-2.58l24.84-14.34c.81,.61,1.34,1.58,1.4,2.58Z"/></clipPath><clipPath id="c"><path class="g" d="M415.05,359.74l-24.84,14.34c.85-.48,1.26-1.34,1.2-2.35l24.84-14.34c.07,1.01-.34,1.87-1.2,2.35Z"/></clipPath><clipPath id="d"><path class="g" d="M343.02,300.67l-24.84,14.34c-.88-.67-1.89-.78-2.7-.31l24.84-14.34c.81-.47,1.82-.36,2.7,.31Z"/></clipPath><clipPath id="e"><path class="g" d="M338.35,302.47l-24.84,14.34c-.06-1.4,.55-2.45,1.47-2.98l24.84-14.34c-.91,.53-1.52,1.58-1.47,2.98Z"/></clipPath><clipPath id="f"><path class="g" d="M347.3,395.1l-24.84,14.34c-2.25,1.13-5.21-1.1-5.34-4.03l24.84-14.34c.13,2.93,3.09,5.16,5.34,4.03Z"/></clipPath></defs><path d="M347.5,10c45.57,0,89.76,8.92,131.37,26.52,40.19,17,76.28,41.33,107.28,72.33,31,31,55.34,67.09,72.33,107.28,17.6,41.6,26.52,85.8,26.52,131.37s-8.92,89.76-26.52,131.37c-17,40.19-41.33,76.28-72.33,107.28s-67.09,55.34-107.28,72.33c-41.6,17.6-85.8,26.52-131.37,26.52s-89.76-8.92-131.37-26.52c-40.19-17-76.28-41.33-107.28-72.33s-55.33-67.09-72.33-107.28c-17.6-41.6-26.52-85.8-26.52-131.37s8.92-89.76,26.52-131.37c17-40.19,41.33-76.28,72.33-107.28,31-31,67.09-55.33,107.28-72.33,41.6-17.6,85.8-26.52,131.37-26.52m0,576c32.19,0,63.43-6.31,92.84-18.75,28.4-12.01,53.91-29.21,75.81-51.11,21.9-21.9,39.1-47.41,51.11-75.81,12.44-29.41,18.75-60.65,18.75-92.84s-6.31-63.43-18.75-92.84c-12.01-28.4-29.21-53.91-51.11-75.81-21.9-21.9-47.41-39.1-75.81-51.11-29.41-12.44-60.65-18.75-92.84-18.75s-63.43,6.31-92.84,18.75c-28.4,12.01-53.91,29.21-75.81,51.11-21.9,21.9-39.1,47.41-51.11,75.81-12.44,29.41-18.75,60.65-18.75,92.84s6.31,63.43,18.75,92.84c12.01,28.4,29.21,53.91,51.11,75.81,21.9,21.9,47.41,39.1,75.81,51.11,29.41,12.44,60.65,18.75,92.84,18.75M347.5,0C155.58,0,0,155.58,0,347.5s155.58,347.5,347.5,347.5,347.5-155.58,347.5-347.5S539.42,0,347.5,0h0Zm0,576c-126.2,0-228.5-102.3-228.5-228.5S221.3,119,347.5,119s228.5,102.3,228.5,228.5-102.3,228.5-228.5,228.5h0Z"/><g><path d="M355.6,34.2l9.68,1.09,12.6,44.97,.22,.03,22.3-41.03,9.71,1.1-6.08,53.91-7.66-.86,4.48-39.75-3.85-.43,10.17-11.68-27.32,50-6.2-.7-15.46-54.83,7.31,13.65-3.85-.43-4.49,39.75-7.66-.86,6.08-53.91Z"/><path d="M440.21,49.26l6.5,2.12-2.79,8.54-2.25-.74-28.64,38.27-8.43-2.76,35.61-45.44Zm-17.52,28.81l23.3,7.61,.22,7.19-27.95-9.13,4.42-5.67Zm19.16-18.82l2.79-8.54,4.25,1.39,1.88,57.69-8.43-2.76-.49-47.78Z"/><path d="M477.32,62.87l18.63,9.9c3.25,1.73,5.76,3.83,7.51,6.29,1.76,2.47,2.7,5.14,2.83,8.02,.13,2.88-.6,5.82-2.2,8.83l-.04,.07c-1.73,3.25-4.07,5.66-7.01,7.22-2.94,1.56-6.11,2.06-9.51,1.51l.35,25.22-8.6-4.57v-23.55c-.1-.05-.17-.09-.22-.11-.06-.03-.13-.07-.22-.11l-9.79-5.2-9.75,18.36-7.44-3.95,25.45-47.91Zm5.46,32.92c2.86,1.52,5.47,1.95,7.83,1.29s4.28-2.36,5.74-5.11l.04-.07c1.4-2.63,1.68-5.15,.83-7.54-.84-2.39-2.69-4.35-5.55-5.86l-10.23-5.43-9.12,17.17,10.46,5.56Z"/><path d="M490.88,131.96c-.25-1.32,.03-2.56,.82-3.72,.78-1.14,1.83-1.83,3.16-2.07,1.32-.25,2.57,.03,3.72,.82,1.14,.78,1.83,1.83,2.07,3.16,.25,1.32-.02,2.56-.8,3.69-.79,1.16-1.85,1.86-3.18,2.1-1.33,.25-2.56-.02-3.69-.8-1.16-.79-1.86-1.85-2.11-3.18Z"/><path d="M507.71,141.77c-1.38-4.19-1.49-8.54-.32-13.07,1.17-4.53,3.62-8.97,7.35-13.33l.02-.03c3.73-4.36,7.74-7.46,12.02-9.31,4.28-1.84,8.59-2.4,12.92-1.68,4.33,.72,8.45,2.75,12.35,6.09,3.03,2.59,5.26,5.51,6.71,8.76,1.44,3.25,2.07,6.58,1.9,9.99-.18,3.41-1.23,6.65-3.14,9.74l-.22,.31-6.37-5.45,.32-.72c.95-1.99,1.43-3.99,1.44-5.99,.01-2-.43-3.93-1.34-5.78-.91-1.85-2.29-3.57-4.16-5.17-2.55-2.18-5.31-3.44-8.28-3.77s-5.96,.23-8.98,1.67c-3.02,1.44-5.89,3.75-8.61,6.94l-.02,.03c-2.71,3.16-4.55,6.36-5.54,9.59-.98,3.23-1.08,6.29-.29,9.18,.79,2.89,2.46,5.42,4.99,7.59,1.83,1.56,3.73,2.65,5.69,3.26s3.97,.75,6.01,.41c2.04-.34,4.04-1.16,6.02-2.47l.33-.21,6.37,5.45-.3,.24c-2.77,2.38-5.82,3.94-9.16,4.66s-6.72,.61-10.13-.33c-3.42-.94-6.65-2.72-9.69-5.33-3.88-3.32-6.52-7.08-7.9-11.27Z"/><path d="M575.82,134.52l5.66,6.23-40.16,36.48-5.66-6.23,40.16-36.48Z"/><path d="M599.66,163.33l3.96,5.58-7.33,5.2-1.37-1.93-45.8,13.68-5.13-7.24,55.67-15.29Zm-31.23,12.71l14.18,19.99-4.11,5.91-17.01-23.98,6.93-1.92Zm26.6-3.7l7.33-5.2,2.59,3.65-32.85,47.46-5.13-7.24,28.07-38.67Z"/><path d="M621.06,196.13l3.71,7.56-42.15,20.71,11.16,22.71-6.55,3.22-14.87-30.27,48.69-23.92Z"/><path d="M617.65,259.88l6.46,23.3-7.14,1.98-6.46-23.3,7.14-1.98Z"/><path d="M657.26,305.24l2.86,33.75-7.27,.62-2.15-25.36-17.08,1.45,1.97,23.23-7.08,.6-1.97-23.23-22.63,1.92-.71-8.39,54.06-4.59Z"/><path d="M607.14,356.9c1.92-3.14,4.46-5.48,7.6-7.01,3.14-1.53,6.68-2.14,10.63-1.83l35.08,2.81-.67,8.4-34.4-2.76c-3.9-.31-7.15,.61-9.77,2.78-2.61,2.17-4.09,5.4-4.44,9.7-.35,4.32,.6,7.74,2.84,10.26,2.24,2.52,5.3,3.93,9.2,4.25l34.4,2.76-.68,8.43-35.08-2.81c-3.95-.32-7.34-1.47-10.19-3.48-2.84-2-4.97-4.71-6.38-8.11-1.41-3.41-1.94-7.37-1.57-11.89,.36-4.52,1.51-8.35,3.43-11.49Z"/><path d="M654.05,408.94l-2.05,8.17-45.54-11.46-6.18,24.54-7.07-1.78,8.23-32.71,52.61,13.24Z"/><path d="M642.12,452.2l-3.21,7.79-43.41-17.91-9.65,23.39-6.74-2.78,12.86-31.18,50.15,20.69Z"/><path d="M567.29,484.79c2.73-1.82,5.55-2.82,8.45-2.99,2.9-.17,5.72,.54,8.48,2.16l.49,.29-4.65,6.8-.45-.21c-1.51-.73-3.08-.96-4.73-.71-1.65,.25-3.26,.96-4.85,2.13-1.59,1.16-3.06,2.74-4.42,4.72-1.37,2.01-2.28,3.92-2.71,5.76-.43,1.83-.4,3.5,.09,5,.49,1.5,1.43,2.73,2.81,3.68l.03,.02c1.8,1.23,3.67,1.56,5.62,1,1.95-.56,4.26-2.12,6.94-4.66l4.36-4.17c3.93-3.75,7.66-6,11.19-6.74s6.95,.02,10.26,2.28l.03,.02c2.53,1.76,4.29,4,5.28,6.71,.99,2.71,1.19,5.66,.6,8.84-.58,3.18-1.96,6.36-4.12,9.52-2.12,3.1-4.53,5.48-7.21,7.14s-5.44,2.53-8.29,2.62c-2.84,.09-5.58-.64-8.22-2.21l-.52-.31,4.65-6.8,.45,.21c1.53,.78,3.08,1.08,4.65,.93,1.57-.16,3.07-.73,4.52-1.71,1.45-.98,2.78-2.37,4-4.14,1.26-1.84,2.08-3.63,2.47-5.37,.38-1.74,.35-3.32-.12-4.73s-1.36-2.57-2.68-3.47l-.03-.02c-1.68-1.15-3.49-1.42-5.46-.82-1.96,.6-4.2,2.09-6.71,4.48l-4.39,4.15c-4.14,3.97-7.93,6.32-11.36,7.05-3.43,.73-6.88-.08-10.33-2.44l-.03-.02c-2.73-1.87-4.62-4.17-5.68-6.91-1.05-2.74-1.25-5.76-.59-9.06,.66-3.3,2.2-6.72,4.62-10.25,2.29-3.35,4.81-5.94,7.54-7.76Z"/><path d="M572.41,553.43l11.37-12.07,5.31,5-28.54,30.3-5.31-5,11.37-12.07-34.19-32.19,5.8-6.16,34.19,32.19Z"/><path d="M536.59,584.56l5.61,7.02-3.5,2.79-49.26-30.08,6.93-5.54,40.22,25.81Zm-5.22-26.34l-19.15,15.3-6.13-3.76,22.97-18.36,2.32,6.81Zm14.47,30.45l-5.34,4.27-5.61-7.02,1.85-1.48-16.28-44.94,6.93-5.54,18.45,54.7Z"/><path d="M482.32,570.73c4.4,.2,8.51,1.65,12.33,4.36,3.81,2.7,7.09,6.58,9.84,11.62l.02,.03c2.74,5.04,4.21,9.89,4.41,14.55,.2,4.66-.81,8.88-3.03,12.67-2.22,3.79-5.58,6.91-10.1,9.37-3.5,1.91-7.02,2.95-10.57,3.15s-6.88-.4-10.01-1.79c-3.12-1.38-5.78-3.52-7.98-6.4l-.21-.31,7.36-4.01,.56,.55c1.53,1.59,3.22,2.76,5.08,3.48s3.82,.99,5.88,.8c2.05-.19,4.16-.87,6.31-2.05,2.95-1.61,5.11-3.74,6.47-6.39,1.37-2.66,1.91-5.65,1.64-8.98s-1.41-6.84-3.41-10.51l-.02-.03c-1.99-3.66-4.32-6.52-6.99-8.59-2.67-2.07-5.5-3.25-8.48-3.54s-5.94,.36-8.87,1.96c-2.11,1.15-3.81,2.54-5.08,4.16-1.27,1.62-2.11,3.44-2.53,5.46s-.36,4.19,.16,6.51l.08,.38-7.36,4.01-.11-.37c-1.24-3.43-1.61-6.84-1.09-10.22,.52-3.38,1.82-6.49,3.92-9.35,2.1-2.86,4.91-5.24,8.43-7.16,4.49-2.45,8.94-3.57,13.34-3.37Z"/><path d="M442.32,615.08l-3.89,7.39-32.02-22.66,9.92-3.29,25.99,18.56Zm5.68,.77l-.75,.25-12.58,31.5-9.49,3.14,12.17-29.86,1-.33,6.25-14.98,3.41,10.28Zm15.65,22.14l-7.99,2.65-17.06-51.5,7.99-2.65,17.06,51.5Z"/><path d="M383.84,604.08c3.15,.92,5.73,2.44,7.72,4.54,2,2.11,3.26,4.73,3.8,7.88l.09,.56-8.19,.81-.12-.48c-.41-1.62-1.25-2.98-2.5-4.08s-2.84-1.88-4.75-2.34c-1.91-.47-4.06-.58-6.46-.34-2.42,.24-4.47,.78-6.15,1.63-1.68,.85-2.94,1.94-3.77,3.28-.84,1.34-1.17,2.85-1.01,4.52v.04c.22,2.17,1.17,3.82,2.86,4.95,1.69,1.13,4.36,1.9,8.03,2.32l6,.65c5.4,.6,9.52,2.01,12.36,4.24s4.46,5.33,4.85,9.32v.04c.28,3.07-.3,5.85-1.74,8.35-1.44,2.5-3.57,4.55-6.38,6.15-2.81,1.6-6.13,2.59-9.95,2.97-3.74,.37-7.11,.06-10.1-.93-2.99-.99-5.44-2.54-7.34-4.66-1.9-2.12-3.1-4.69-3.6-7.71l-.1-.59,8.19-.81,.12,.48c.39,1.67,1.15,3.06,2.28,4.16,1.13,1.1,2.54,1.88,4.22,2.36,1.68,.48,3.6,.61,5.74,.39,2.22-.22,4.12-.74,5.7-1.57,1.58-.82,2.76-1.87,3.54-3.13,.78-1.26,1.09-2.69,.94-4.29v-.04c-.2-2.02-1.17-3.59-2.89-4.7-1.72-1.11-4.3-1.87-7.74-2.26l-6-.69c-5.7-.62-9.94-2.01-12.71-4.16-2.77-2.16-4.36-5.32-4.77-9.48v-.04c-.33-3.29,.22-6.22,1.64-8.79,1.42-2.57,3.61-4.67,6.56-6.28,2.95-1.62,6.56-2.63,10.82-3.06,4.04-.4,7.64-.14,10.79,.78Z"/><path d="M339.66,608.19c3.61,2.57,6.28,6.03,7.99,10.38,1.71,4.35,2.33,9.39,1.87,15.11v.08c-.47,5.72-1.9,10.58-4.3,14.59-2.4,4-5.59,6.98-9.57,8.94-3.98,1.95-8.57,2.72-13.77,2.3-5.17-.42-9.56-1.92-13.18-4.5-3.61-2.58-6.28-6.03-7.99-10.36-1.71-4.33-2.34-9.35-1.87-15.07v-.08c.47-5.72,1.89-10.58,4.28-14.59,2.39-4.01,5.56-6.99,9.53-8.96,3.97-1.97,8.55-2.74,13.75-2.32,5.22,.42,9.64,1.92,13.25,4.49Zm-22.98,4.76c-2.63,1.47-4.75,3.69-6.35,6.65-1.6,2.96-2.56,6.52-2.9,10.67v.07c-.34,4.17,.04,7.84,1.16,11.01,1.11,3.17,2.86,5.69,5.24,7.55,2.38,1.87,5.26,2.93,8.66,3.21,3.42,.28,6.46-.31,9.1-1.75,2.64-1.45,4.78-3.64,6.4-6.59,1.62-2.95,2.6-6.52,2.94-10.72v-.08c.34-4.17-.05-7.85-1.18-11.03-1.12-3.18-2.87-5.71-5.23-7.57-2.36-1.86-5.27-2.93-8.72-3.21s-6.49,.32-9.12,1.79Z"/><path d="M284.16,653.67l-32.79-8.49,1.83-7.06,24.64,6.38,4.3-16.6-22.57-5.84,1.78-6.88,22.57,5.84,5.69-21.98,8.15,2.11-13.6,52.52Z"/><path d="M231.04,629.41l15.23,6.55-2.88,6.7-38.24-16.44,2.88-6.7,15.23,6.55,18.55-43.14,7.77,3.34-18.55,43.14Z"/><path d="M196.36,622.91l-7.2-5.06,16.19-40.55-.15-.11-33.78,28.18-6.55-4.61,15.08-41.33-.15-.11-32.68,28.96-7.2-5.06,43.17-35.97,6.64,4.67-13.97,40.14,.15,.11,33.04-26.73,6.64,4.67-19.24,52.79Z"/><path d="M127.83,556.52l-6.51,6.2-3.09-3.24,25.7-51.68,6.12,6.42-22.22,42.3Zm-3.29,9.57l-4.72-4.96,6.51-6.2,1.63,1.71,43.36-20.11,6.12,6.42-52.9,23.13Zm29.08-17.06l-16.91-17.75,3.21-6.44,20.28,21.29-6.59,2.9Z"/><path d="M98.32,536.55l-11.74-17.52c-2.05-3.06-3.27-6.09-3.65-9.09-.38-3,.05-5.8,1.3-8.4,1.25-2.6,3.28-4.85,6.12-6.75l.06-.04c3.06-2.05,6.26-3.07,9.59-3.05,3.33,.02,6.36,1.07,9.09,3.17l11.61-22.39,5.42,8.09-11.12,20.75c.06,.08,.1,.15,.14,.2,.04,.05,.08,.12,.14,.2l6.17,9.21,17.27-11.57,4.69,7-45.08,30.19Zm10.74-31.59c-1.8-2.69-3.9-4.3-6.29-4.84-2.4-.54-4.89,.06-7.47,1.79l-.06,.04c-2.48,1.66-3.91,3.74-4.3,6.25s.32,5.1,2.12,7.79l6.44,9.62,16.15-10.82-6.59-9.84Z"/><path d="M70.69,492.96l-14.4-31.28,6.63-3.05,10.88,23.63,14.34-6.6-10.3-22.37,6.42-2.96,10.3,22.37,15.27-7.03-10.88-23.63,6.63-3.05,14.4,31.28-49.28,22.68Z"/><path d="M46.35,432.88l-3.93-18.73c-1.11-5.27-1.02-10,.27-14.17,1.29-4.18,3.69-7.68,7.19-10.5,3.51-2.82,8.05-4.82,13.65-5.99l.07-.02c5.59-1.17,10.59-1.19,14.99-.03,4.4,1.15,8.05,3.38,10.93,6.68s4.88,7.6,5.99,12.9l3.93,18.73-53.1,11.14Zm42.19-27.6c-.79-3.75-2.2-6.77-4.24-9.06-2.04-2.29-4.65-3.8-7.83-4.54-3.18-.74-6.85-.67-11.02,.2l-.07,.02c-4.15,.87-7.52,2.29-10.11,4.25-2.6,1.97-4.37,4.4-5.31,7.3-.94,2.9-1.02,6.23-.23,9.98l2.04,9.71,38.82-8.15-2.04-9.71Z"/><path d="M36.18,376.38l-1.34-34.41,7.29-.28,1.01,26,15.78-.61-.96-24.61,7.06-.27,.96,24.61,16.79-.65-1.01-26,7.29-.28,1.34,34.41-54.21,2.11Z"/><path d="M34.72,332.83l1.11-9.03,46.32-9.19,.02-.19-42.71-20.14,1.12-9.07,51.49,25.8-1.14,9.25-56.21,12.56Z"/><path d="M43.3,275.04l9.73-33.04,7,2.06-7.35,24.96,15.15,4.46,6.96-23.62,6.78,2-6.96,23.62,16.12,4.75,7.35-24.96,7,2.06-9.73,33.04-52.04-15.33Z"/><path d="M57.7,230.13l3.55-7.64,42.59,19.78,10.66-22.95,6.61,3.07-14.21,30.59-49.2-22.85Z"/><path d="M124.56,212.08c-4.02,1.87-8.34,2.47-12.97,1.8-4.63-.67-9.31-2.62-14.05-5.86l-.06-.04c-4.74-3.23-8.26-6.89-10.55-10.95-2.29-4.07-3.3-8.31-3.03-12.74,.27-4.43,1.88-8.79,4.82-13.1,2.92-4.29,6.4-7.36,10.43-9.22,4.03-1.86,8.35-2.46,12.96-1.81,4.61,.65,9.28,2.6,14.02,5.83l.06,.04c4.74,3.24,8.26,6.88,10.56,10.94,2.3,4.06,3.32,8.3,3.06,12.72-.26,4.42-1.85,8.79-4.79,13.09-2.95,4.33-6.44,7.43-10.46,9.29Zm7.24-22.32c.03-3.02-.85-5.95-2.64-8.81-1.78-2.86-4.39-5.46-7.83-7.8l-.06-.04c-3.46-2.36-6.84-3.84-10.15-4.44-3.31-.6-6.36-.33-9.15,.81-2.8,1.14-5.16,3.12-7.08,5.94-1.94,2.84-2.93,5.76-2.98,8.77s.8,5.96,2.56,8.82c1.76,2.87,4.38,5.49,7.86,7.86l.06,.04c3.46,2.36,6.85,3.84,10.17,4.44s6.38,.33,9.17-.8c2.79-1.13,5.16-3.13,7.11-5.98,1.95-2.86,2.94-5.79,2.96-8.81Z"/><path d="M112.54,141.15l5.91-6,38.66,38.07-5.91,6-38.66-38.07Zm23.37,17.1l9.76-9.91c2.55-2.59,3.86-5.27,3.93-8.03,.07-2.77-1.1-5.33-3.49-7.68l-.05-.05c-2.43-2.39-5.02-3.53-7.78-3.41-2.76,.12-5.41,1.47-7.96,4.06l-9.76,9.91-5.06-4.99,11.24-11.41c2.5-2.54,5.22-4.24,8.18-5.11,2.95-.87,5.92-.92,8.89-.14,2.97,.78,5.72,2.42,8.24,4.9l.05,.05c2.52,2.48,4.2,5.21,5.05,8.19,.85,2.98,.86,5.95,.03,8.92-.83,2.97-2.49,5.72-4.99,8.25l-11.24,11.41-5.04-4.96Z"/><path d="M148.35,106.48l27.66-20.52,4.35,5.86-20.9,15.5,9.41,12.68,19.78-14.67,4.21,5.68-19.78,14.67,10.01,13.5,20.9-15.5,4.35,5.86-27.66,20.52-32.33-43.57Z"/><path d="M187.02,78.99l18.71-9.74c3.27-1.7,6.42-2.58,9.44-2.62,3.03-.05,5.76,.69,8.21,2.21s4.46,3.8,6.03,6.82l.03,.07c1.7,3.27,2.36,6.56,1.98,9.86-.38,3.31-1.77,6.2-4.15,8.69l20.98,14.01-8.64,4.5-19.4-13.34c-.09,.05-.16,.08-.22,.11-.06,.03-.13,.07-.22,.11l-9.84,5.12,9.6,18.44-7.47,3.89-25.04-48.13Zm30.21,14.16c2.87-1.49,4.7-3.4,5.5-5.72s.48-4.86-.96-7.62l-.03-.07c-1.38-2.65-3.29-4.3-5.74-4.96-2.45-.66-5.11-.25-7.98,1.25l-10.27,5.35,8.97,17.24,10.51-5.47Z"/><path d="M281.31,42.31l7.22-1.47,13.45,66.06-7.22,1.47-13.45-66.06Z"/></g><g class="m"><g class="m"><g class="i"><g class="m"><path d="M416.24,357.39l-24.84,14.34c-.06-1-.58-1.97-1.4-2.58l24.84-14.34c.81,.61,1.34,1.58,1.4,2.58"/></g></g></g><g class="m"><g class="h"><g class="m"><path d="M415.05,359.74l-24.84,14.34c.85-.48,1.26-1.34,1.2-2.35l24.84-14.34c.07,1.01-.34,1.87-1.2,2.35"/></g></g></g><polygon points="414.84 354.8 390.01 369.14 318.18 315.01 343.02 300.67 414.84 354.8"/><g class="m"><g class="l"><g class="m"><path d="M343.02,300.67l-24.84,14.34c-.88-.67-1.89-.78-2.7-.31l24.84-14.34c.81-.47,1.82-.36,2.7,.31"/></g></g></g><g class="m"><g class="k"><g class="m"><path d="M338.35,302.47l-24.84,14.34c-.06-1.4,.55-2.45,1.47-2.98l24.84-14.34c-.91,.53-1.52,1.58-1.47,2.98"/></g></g></g><polygon points="415.66 360.55 390.82 374.89 322.47 409.44 347.3 395.1 415.66 360.55"/><polygon points="341.96 391.07 317.13 405.41 313.51 316.81 338.35 302.47 341.96 391.07"/><path d="M415.25,354.04c2.32,1.75,2.51,5.29,.41,6.51l-68.36,34.55c-2.25,1.13-5.21-1.1-5.34-4.03l-3.61-88.61c-.06-1.4,.55-2.45,1.47-2.98,1-.58,2.36-.52,3.6,.41l71.83,54.14Zm.99,3.34c-.06-1-.58-1.97-1.4-2.58l-71.83-54.14c-.88-.67-1.89-.78-2.7-.31-.74,.43-1.14,1.24-1.11,2.23l3.62,88.61c.04,1.03,.56,2.02,1.4,2.65,.83,.63,1.8,.77,2.6,.37l68.21-34.48c.85-.48,1.26-1.34,1.2-2.35"/><g class="m"><g class="j"><g class="m"><path d="M347.3,395.1l-24.84,14.34c-2.25,1.13-5.21-1.1-5.34-4.03l24.84-14.34c.13,2.93,3.09,5.16,5.34,4.03"/></g></g></g></g></svg>