<svg id="Layer_1" data-name="Layer 1" xmlns="http://www.w3.org/2000/svg" xmlns:xlink="http://www.w3.org/1999/xlink" viewBox="0 0 695 695"><defs><style>.cls-1{fill:none;}.cls-2{isolation:isolate;}.cls-3{clip-path:url(#clip-path);}.cls-4{clip-path:url(#clip-path-2);}.cls-5{clip-path:url(#clip-path-3);}.cls-6{clip-path:url(#clip-path-4);}.cls-7{clip-path:url(#clip-path-5);}</style><clipPath id="clip-path" transform="translate(-149.92 -199.49)"><path class="cls-1" d="M566.16,556.88l-24.83,14.34a3.56,3.56,0,0,0-1.4-2.58l24.84-14.34A3.55,3.55,0,0,1,566.16,556.88Z"/></clipPath><clipPath id="clip-path-2" transform="translate(-149.92 -199.49)"><path class="cls-1" d="M565,559.23l-24.84,14.34a2.4,2.4,0,0,0,1.2-2.35l24.83-14.34A2.38,2.38,0,0,1,565,559.23Z"/></clipPath><clipPath id="clip-path-3" transform="translate(-149.92 -199.49)"><path class="cls-1" d="M492.94,500.16,468.1,514.5a2.39,2.39,0,0,0-2.7-.31l24.84-14.34A2.39,2.39,0,0,1,492.94,500.16Z"/></clipPath><clipPath id="clip-path-4" transform="translate(-149.92 -199.49)"><path class="cls-1" d="M488.27,502,463.44,516.3a3.15,3.15,0,0,1,1.46-3L489.74,499A3.13,3.13,0,0,0,488.27,502Z"/></clipPath><clipPath id="clip-path-5" transform="translate(-149.92 -199.49)"><path class="cls-1" d="M497.22,594.59l-24.83,14.34c-2.25,1.14-5.22-1.09-5.34-4l24.84-14.34C492,593.5,495,595.73,497.22,594.59Z"/></clipPath></defs><path d="M497.42,209.49A336.38,336.38,0,1,1,366.05,236a335.48,335.48,0,0,1,131.37-26.52m0,576a237.7,237.7,0,1,0-92.84-18.74,237,237,0,0,0,92.84,18.74m0-586c-191.92,0-347.5,155.59-347.5,347.5s155.58,347.5,347.5,347.5S844.92,738.91,844.92,547s-155.58-347.5-347.5-347.5Zm0,576c-126.2,0-228.5-102.3-228.5-228.5s102.3-228.5,228.5-228.5S725.92,420.8,725.92,547s-102.3,228.5-228.5,228.5Z" transform="translate(-149.92 -199.49)"/><path d="M507.3,229.33l11.1,1.44L532,282.69l.25,0L558.67,236l11.15,1.45-8,61.83L553,298.15l5.93-45.59-4.41-.58,11.91-13.22-32.37,56.92-7.11-.92-16.69-63.3,8.14,15.83-4.42-.58L508,292.3l-8.78-1.14Z" transform="translate(-149.92 -199.49)"/><path d="M604.9,249.43l7.35,2.8-3.67,9.65-2.55-1-35,42.37-9.53-3.63Zm-21.69,32.12,26.34,10-.14,8.26-31.58-12Zm23-20.56,3.67-9.65,4.8,1.83-1,66.32-9.53-3.62Z" transform="translate(-149.92 -199.49)"/><path d="M647.4,267.68l20.52,12.9a24.23,24.23,0,0,1,8.08,7.84,16.9,16.9,0,0,1,2.58,9.42,19.69,19.69,0,0,1-3.27,10l0,.07a19.34,19.34,0,0,1-8.63,7.69,16.91,16.91,0,0,1-11,.93l-1.71,28.93-9.48-6,2-27-.24-.15-.24-.15-10.79-6.79L622.4,325.61l-8.19-5.15Zm3.5,38.18q4.71,3,8.87,2.13t7-5.37l0-.07A10.45,10.45,0,0,0,668.4,294q-1.15-4.22-5.87-7.18l-11.26-7.09-11.89,18.92Z" transform="translate(-149.92 -199.49)"/><path d="M656.62,347.87A5.71,5.71,0,0,1,668,346.79a5.44,5.44,0,0,1-1.29,4.14,5.71,5.71,0,0,1-10.08-3.06Z" transform="translate(-149.92 -199.49)"/><path d="M674.53,360.54a26.12,26.12,0,0,1,1.2-15,38.65,38.65,0,0,1,10-14.35l0,0A38.45,38.45,0,0,1,700.63,322a26.12,26.12,0,0,1,15-.37A29.26,29.26,0,0,1,729,330.07a28.67,28.67,0,0,1,6.61,10.82,24.64,24.64,0,0,1,1,11.64,23.24,23.24,0,0,1-4.75,10.75l-.29.33-6.62-7,.45-.78a16.1,16.1,0,0,0,2.36-6.67,14.64,14.64,0,0,0-.83-6.76,18.85,18.85,0,0,0-4.14-6.41,17.36,17.36,0,0,0-9-5.31,18.78,18.78,0,0,0-10.46.83,30.65,30.65,0,0,0-10.67,6.89l0,0a31.06,31.06,0,0,0-7.48,10.29,18.71,18.71,0,0,0-1.43,10.46,17.4,17.4,0,0,0,4.79,9.27,18.55,18.55,0,0,0,6.11,4.42,14.73,14.73,0,0,0,6.81,1.19,17.58,17.58,0,0,0,7.18-2.09l.41-.2,6.62,7-.37.24a23.6,23.6,0,0,1-11,4.22,24.08,24.08,0,0,1-11.54-1.6,31.52,31.52,0,0,1-18.11-21.08Z" transform="translate(-149.92 -199.49)"/><path d="M753.37,361.13l5.57,7.91-51,35.9L702.39,397Z" transform="translate(-149.92 -199.49)"/><path d="M776.51,398l3.59,7-9.19,4.72-1.24-2.42-54.33,8.09-4.66-9.07Zm-37.6,9.36,12.87,25.05-5.64,6.06-15.43-30.06Zm30.86.12L779,402.8l2.34,4.57L736.19,456l-4.66-9.07Z" transform="translate(-149.92 -199.49)"/><path d="M795.53,439.7l2.76,9.27-51.73,15.39,8.29,27.87-8,2.39-11.05-37.15Z" transform="translate(-149.92 -199.49)"/><path d="M779,511.3,781.11,539l-8.49.64L770.51,512Z" transform="translate(-149.92 -199.49)"/><path d="M813.2,572.06,808,610.64l-8.31-1.13,3.93-29-19.53-2.64-3.59,26.54-8.1-1.09,3.6-26.55-25.86-3.5,1.3-9.59Z" transform="translate(-149.92 -199.49)"/><path d="M744,616.6a20.87,20.87,0,0,1,10.44-5.67,23.23,23.23,0,0,1,12.36,1l38.29,13-3.11,9.17L764.37,621.3a15.05,15.05,0,0,0-11.66.35q-5.28,2.52-7.67,9.56t.27,12.23a15.09,15.09,0,0,0,9.05,7.32l37.56,12.76-3.13,9.21-38.29-13A23.17,23.17,0,0,1,740.13,653a20.81,20.81,0,0,1-4.83-10.83A32.91,32.91,0,0,1,744,616.6Z" transform="translate(-149.92 -199.49)"/><path d="M780.93,688.4l-4.8,8.4L729.28,670l-14.44,25.25-7.27-4.17,19.24-33.64Z" transform="translate(-149.92 -199.49)"/><path d="M753.84,733l-6.12,7.5L705.9,706.38l-18.38,22.54-6.5-5.3,24.5-30Z" transform="translate(-149.92 -199.49)"/><path d="M660.93,743a19.49,19.49,0,0,1,10.29-.19,17,17,0,0,1,8.46,5.44l.43.49-7.54,5.71-.41-.39a9.13,9.13,0,0,0-4.9-2.5,12.74,12.74,0,0,0-6.06.56,22.05,22.05,0,0,0-6.53,3.54,20.07,20.07,0,0,0-5,5.29,10.54,10.54,0,0,0-1.73,5.48,8.08,8.08,0,0,0,1.73,5l0,0a7.35,7.35,0,0,0,5.77,3.14q3.5.14,9.26-2.55l6.27-3q8.47-4,14.65-3.27A14.75,14.75,0,0,1,696,772.12l0,0a15.87,15.87,0,0,1,3.31,9.23,19.2,19.2,0,0,1-2.56,9.86,28.58,28.58,0,0,1-8,8.88,28,28,0,0,1-10.46,5.16,19,19,0,0,1-10-.16,17.17,17.17,0,0,1-8.16-5.39l-.45-.53,7.54-5.71.41.39a9.4,9.4,0,0,0,4.73,2.7,11.08,11.08,0,0,0,5.55-.22,17.65,17.65,0,0,0,5.87-3.06,17.85,17.85,0,0,0,4.64-5,10.13,10.13,0,0,0,1.6-5.19,7.7,7.7,0,0,0-1.66-4.76l0,0a6.93,6.93,0,0,0-5.65-2.87q-3.53-.09-8.94,2.44l-6.29,2.92q-8.94,4.23-15,3.56T642.16,778l0,0a16.93,16.93,0,0,1-3.68-9.61,18.38,18.38,0,0,1,2.66-10.09A36.66,36.66,0,0,1,660.93,743Z" transform="translate(-149.92 -199.49)"/><path d="M640.79,819.56l17-8.62,3.79,7.48-42.66,21.63-3.79-7.48,17-8.62-24.41-48.13,8.68-4.4Z" transform="translate(-149.92 -199.49)"/><path d="M589.27,838.89l3.11,9.85-4.91,1.54-40.32-52.67,9.73-3.06Zm5.34-30.4L567.74,817l-5-6.57L595,800.23Zm2.88,38.64-7.5,2.36-3.11-9.85,2.6-.82,1.19-54.91,9.73-3.07Z" transform="translate(-149.92 -199.49)"/><path d="M537.54,801.05a26.14,26.14,0,0,1,11.13,10.09,38.57,38.57,0,0,1,5.27,16.68v0a38.45,38.45,0,0,1-1.79,17.38,26.08,26.08,0,0,1-8.84,12.09,29.11,29.11,0,0,1-14.86,5.45,28.43,28.43,0,0,1-12.6-1.36,24.63,24.63,0,0,1-9.82-6.34,23.31,23.31,0,0,1-5.61-10.32l-.09-.43,9.58-1,.35.83a16.16,16.16,0,0,0,3.85,5.95A14.58,14.58,0,0,0,520,853.6a18.93,18.93,0,0,0,7.6.64,17.49,17.49,0,0,0,9.7-3.91,18.83,18.83,0,0,0,5.72-8.79,30.68,30.68,0,0,0,1-12.66v0a30.9,30.9,0,0,0-3.59-12.2,18.66,18.66,0,0,0-7.42-7.52,17.43,17.43,0,0,0-10.26-1.86,18.62,18.62,0,0,0-7.23,2.16,14.73,14.73,0,0,0-5.1,4.67,17.69,17.69,0,0,0-2.72,7l-.09.45-9.58,1,0-.44a23.55,23.55,0,0,1,3.38-11.31,23.91,23.91,0,0,1,8.31-8.17,31.49,31.49,0,0,1,27.75-1.5Z" transform="translate(-149.92 -199.49)"/><path d="M481.06,833.25l-.9-.09-28,27.17-11.43-1.15,26.75-25.63,1.2.12,13.58-12.8Zm-5.6-3.47-7.54,5.93-23-38.78,11.95,1.2Zm11.66,34-9.63-1,6.22-62,9.63,1Z" transform="translate(-149.92 -199.49)"/><path d="M409,853.31l-9.29-4,8.65-49.43-.2-.09-31.36,39.67-8.45-3.64,7.22-50-.2-.08L345.46,826l-9.28-4,40.07-50.64,8.57,3.69-6.25,48.44.2.08,30.86-37.85,8.57,3.68Z" transform="translate(-149.92 -199.49)"/><path d="M324.27,812.36l-31.77-23.6,5-6.73,24,17.83,10.82-14.57L309.6,768.41l4.85-6.52,22.72,16.88,11.52-15.5-24-17.84,5-6.72,31.77,23.6Z" transform="translate(-149.92 -199.49)"/><path d="M317.23,737.66,304.8,724.32q-4.43-4.74-8.64-5.47a8.92,8.92,0,0,0-7.86,2.66l-.06.06a8.8,8.8,0,0,0-2.32,10.72,22.37,22.37,0,0,0,4.43,6.44l12,12.84-5.47,5.09-10.63-11.41q-4.36-4.68-8.49-5.44a8.43,8.43,0,0,0-7.55,2.43l-.06.06a7.94,7.94,0,0,0-2.88,6.61q.28,3.66,3.88,7.52l12.07,13-5.78,5.39-13.67-14.67a22.85,22.85,0,0,1-5.21-8.41,14.43,14.43,0,0,1,4.1-15.66l.07-.06a13.43,13.43,0,0,1,5.58-3.13,14.37,14.37,0,0,1,6.42-.34,12.51,12.51,0,0,1,5.85,2.67l.13-.12a17.68,17.68,0,0,1-3.47-7.37,14.25,14.25,0,0,1,.41-7.35,15.23,15.23,0,0,1,4.2-6.37l.06-.06a16.92,16.92,0,0,1,8.65-4.54,16.49,16.49,0,0,1,9.41,1.24,27.79,27.79,0,0,1,9.33,6.9L323,732.27ZM280.7,778.32l-6.6-7.08,45.62-42.51,6.59,7.08Z" transform="translate(-149.92 -199.49)"/><path d="M229.07,716.22l-10.26-19.45A32.31,32.31,0,0,1,214.62,681a24.54,24.54,0,0,1,4.63-13.88q4.47-6.35,13.18-10.94l.08,0a37.47,37.47,0,0,1,16.55-4.78,24.54,24.54,0,0,1,14.19,3.92q6.35,4.1,10.7,12.36l10.26,19.45ZM267,672.38a22.09,22.09,0,0,0-7.56-8.66,16.91,16.91,0,0,0-10.08-2.55,29.49,29.49,0,0,0-12.12,3.71l-.08,0a28.8,28.8,0,0,0-9.82,7.9,17,17,0,0,0-3.56,9.74,22.22,22.22,0,0,0,2.9,11.1L232,703.75l40.31-21.28Z" transform="translate(-149.92 -199.49)"/><path d="M199.88,656.09l-11.35-37.92,8-2.4,8.58,28.64,17.38-5.2-8.12-27.12,7.78-2.33,8.12,27.12,18.51-5.55-8.58-28.64,8-2.4,11.35,37.91Z" transform="translate(-149.92 -199.49)"/><path d="M185.67,607.18l-1.07-10.4,49.54-22.18,0-.21-53-11.61L180,552.34l64.3,15.7,1.1,10.66Z" transform="translate(-149.92 -199.49)"/><path d="M180.69,539.57,184,500.12l8.35.69-2.46,29.8,18.08,1.5,2.34-28.21,8.09.67L216,532.78l19.25,1.59,2.46-29.8,8.36.69-3.27,39.45Z" transform="translate(-149.92 -199.49)"/><path d="M186.73,485l2.42-9.37,52.26,13.47L248.67,461l8.11,2.09-9.67,37.54Z" transform="translate(-149.92 -199.49)"/><path d="M258.5,451.42a25.85,25.85,0,0,1-14.4,4.37,38.6,38.6,0,0,1-17-4.12l-.08,0a38.17,38.17,0,0,1-13.94-10.54,26.06,26.06,0,0,1-5.73-13.91,29.93,29.93,0,0,1,3.12-15.74,29.59,29.59,0,0,1,10.19-12.34A26,26,0,0,1,235,394.72a38.22,38.22,0,0,1,17,4.1l.08,0A38.48,38.48,0,0,1,266,409.38a26,26,0,0,1,5.76,13.88A29.57,29.57,0,0,1,268.71,439,30,30,0,0,1,258.5,451.42Zm4.21-26.64a18.52,18.52,0,0,0-4.57-9.53,31,31,0,0,0-10.29-7.45l-.08,0a30.53,30.53,0,0,0-12.32-3.22,18.49,18.49,0,0,0-10.24,2.56,19.75,19.75,0,0,0-8.78,18.51,18.51,18.51,0,0,0,4.49,9.55,30.6,30.6,0,0,0,10.33,7.52l.08,0a30.39,30.39,0,0,0,12.35,3.21,18.57,18.57,0,0,0,10.26-2.55,19.74,19.74,0,0,0,8.77-18.6Z" transform="translate(-149.92 -199.49)"/><path d="M232.87,372.45l5.84-7.71,49.7,37.65-5.85,7.72Zm29.16,16,9.66-12.74q3.78-5,3.28-9.74t-5.11-8.24l-.07-.05q-4.68-3.56-9.37-2.73t-8.46,5.8l-9.66,12.75-6.51-4.94,11.12-14.67a21.93,21.93,0,0,1,8.56-7,18.69,18.69,0,0,1,10.11-1.47,21.26,21.26,0,0,1,10.12,4.36l.07.05a21.43,21.43,0,0,1,7,8.59,18.57,18.57,0,0,1,1.36,10.16,21.91,21.91,0,0,1-4.47,10.15l-11.11,14.67Z" transform="translate(-149.92 -199.49)"/><path d="M269.18,327.26l29.11-26.82,5.68,6.17-22,20.26,12.29,13.34L315.09,321l5.5,6-20.81,19.18,13.09,14.2,22-20.26,5.68,6.17-29.11,26.81Z" transform="translate(-149.92 -199.49)"/><path d="M310.73,290.81l20.5-12.94A24.42,24.42,0,0,1,341.79,274a17,17,0,0,1,9.61,1.75A19.67,19.67,0,0,1,359,283l0,.07a19.39,19.39,0,0,1,3.21,11.11,17,17,0,0,1-3.92,10.35l25.36,14-9.47,6-23.49-13.43-.24.15-.24.15-10.78,6.8,12.76,20.21L344,343.53Zm35.95,13.33c3.14-2,5.06-4.34,5.75-7.08s.09-5.61-1.82-8.64l-.05-.07a10.45,10.45,0,0,0-7-5.13q-4.31-.8-9,2.19l-11.25,7.1,11.92,18.89Z" transform="translate(-149.92 -199.49)"/><path d="M417.08,241l8.22-2,18.62,75.2-8.22,2Z" transform="translate(-149.92 -199.49)"/><g class="cls-2"><g class="cls-2"><g class="cls-3"><g class="cls-2"><path d="M566.16,556.88l-24.83,14.34a3.56,3.56,0,0,0-1.4-2.58l24.84-14.34a3.55,3.55,0,0,1,1.39,2.58" transform="translate(-149.92 -199.49)"/></g></g></g><g class="cls-2"><g class="cls-4"><g class="cls-2"><path d="M565,559.23l-24.84,14.34a2.4,2.4,0,0,0,1.2-2.35l24.83-14.34a2.38,2.38,0,0,1-1.19,2.35" transform="translate(-149.92 -199.49)"/></g></g></g><polygon points="414.84 354.81 390.01 369.14 318.18 315.01 343.01 300.67 414.84 354.81"/><g class="cls-2"><g class="cls-5"><g class="cls-2"><path d="M492.94,500.16,468.1,514.5a2.39,2.39,0,0,0-2.7-.31l24.84-14.34a2.39,2.39,0,0,1,2.7.31" transform="translate(-149.92 -199.49)"/></g></g></g><g class="cls-2"><g class="cls-6"><g class="cls-2"><path d="M488.27,502,463.44,516.3a3.15,3.15,0,0,1,1.46-3L489.74,499a3.13,3.13,0,0,0-1.47,3" transform="translate(-149.92 -199.49)"/></g></g></g><polygon points="415.66 360.55 390.82 374.89 322.46 409.44 347.3 395.1 415.66 360.55"/><polygon points="341.96 391.07 317.13 405.41 313.51 316.81 338.35 302.47 341.96 391.07"/><path d="M565.17,553.54c2.32,1.74,2.51,5.29.41,6.5l-68.36,34.55c-2.25,1.14-5.21-1.09-5.33-4L488.27,502a3.13,3.13,0,0,1,1.47-3,3.24,3.24,0,0,1,3.6.42Zm1,3.34a3.55,3.55,0,0,0-1.39-2.58l-71.83-54.14a2.27,2.27,0,0,0-3.81,1.92l3.63,88.61a3.52,3.52,0,0,0,1.4,2.65,2.45,2.45,0,0,0,2.6.37L565,559.23a2.38,2.38,0,0,0,1.19-2.35" transform="translate(-149.92 -199.49)"/><g class="cls-2"><g class="cls-7"><g class="cls-2"><path d="M497.22,594.59l-24.83,14.34c-2.25,1.14-5.22-1.09-5.34-4l24.84-14.34c.12,2.93,3.08,5.16,5.33,4" transform="translate(-149.92 -199.49)"/></g></g></g></g></svg>